<svg xmlns="http://www.w3.org/2000/svg" viewBox="0 -0.5 315 315" shape-rendering="crispEdges">
<metadata>Made with Pixels to Svg https://codepen.io/shshaw/pen/XbxvNj</metadata>
<path stroke="rgba(0,128,0,0.06274509803921569)" d="M17 2h1M124 5h1M187 8h1M311 31h1M17 42h1M193 92h1M192 93h1M190 95h1M187 98h1M187 188h1M311 211h1M17 222h1M193 272h1M192 273h1M190 275h1M311 301h1M124 309h1M17 312h1" />
<path stroke="rgba(0,134,0,0.32941176470588235)" d="M18 2h1M18 42h1M136 117h1M135 118h1M134 119h1M132 121h1M131 122h1M130 123h1M136 207h1M135 208h1M134 209h1M132 211h1M131 212h1M18 222h1M136 297h1M135 298h1M134 299h1M132 301h1M131 302h1M18 312h1" />
<path stroke="rgba(0,135,0,0.4588235294117647)" d="M19 2h1M19 42h1M236 107h1M234 109h1M233 110h1M232 111h1M236 197h1M235 198h1M234 199h1M233 200h1M232 201h1M19 222h1M183 286h1M19 312h1" />
<path stroke="rgba(0,135,0,0.5647058823529412)" d="M20 2h1M307 8h1M20 42h1M292 51h1M291 52h1M290 53h1M307 98h1M20 222h1M292 231h1M291 232h1M290 233h1M307 278h1M307 306h1M20 312h1" />
<path stroke="rgba(0,135,0,0.6588235294117647)" d="M21 2h1M132 19h1M21 42h1M21 222h1M21 312h1" />
<path stroke="rgba(0,133,0,0.7647058823529411)" d="M22 2h1M130 13h1M211 42h1M255 121h1M254 122h1M253 123h1M252 124h1M251 125h1M249 127h1M248 128h1M255 211h1M254 212h1M252 214h1M251 215h1M249 217h1M248 218h1" />
<path stroke="rgba(0,135,0,0.8)" d="M23 2h89M203 2h89M185 11h1M182 14h1M226 60h1M225 61h1M224 62h1M223 63h1M222 64h1M221 65h1M185 101h1M182 104h1M226 150h1M225 151h1M224 152h1M222 154h1M221 155h1M182 194h1M226 240h1M225 241h1M224 242h1M223 243h1M222 244h1M221 245h1M72 272h32M252 272h40" />
<path stroke="rgba(0,135,0,0.7764705882352941)" d="M112 2h1M232 54h1M231 55h1M230 56h1M229 57h1M228 58h1M227 59h1M232 144h1M231 145h1M230 146h1M229 147h1M228 148h1M227 149h1M232 234h1M231 235h1M230 236h1M229 237h1M228 238h1M227 239h1M184 284h1M184 300h1" />
<path stroke="rgba(0,133,0,0.6901960784313725)" d="M113 2h1M6 34h1M278 98h1M6 214h1M6 304h1M113 312h1" />
<path stroke="rgba(0,135,0,0.5764705882352941)" d="M114 2h1M306 37h1M305 38h1M303 40h1M306 217h1M305 218h1M303 220h1M114 312h1" />
<path stroke="rgba(0,136,0,0.48627450980392156)" d="M115 2h1M115 312h1" />
<path stroke="rgba(0,134,0,0.36470588235294116)" d="M116 2h1M195 3h1M308 35h1M130 213h1M308 215h1M182 293h1M130 303h1M308 305h1M195 311h1M116 312h1" />
<path stroke="rgba(0,137,0,0.10980392156862745)" d="M117 2h1M14 3h1M14 41h1M142 53h1M141 54h1M142 143h1M141 144h1M14 221h1M142 233h1M141 234h1M125 308h1M14 311h1M117 312h1" />
<path stroke="rgba(0,153,0,0.0196078431372549)" d="M197 2h1M197 312h1" />
<path stroke="rgba(0,135,0,0.25882352941176473)" d="M198 2h1M198 312h1" />
<path stroke="rgba(0,134,0,0.43137254901960786)" d="M199 2h1M199 312h1" />
<path stroke="rgba(0,135,0,0.5333333333333333)" d="M200 2h1M289 54h1M288 55h1M245 98h1M245 188h1M31 220h1M289 234h1M288 235h1M200 312h1" />
<path stroke="rgba(0,135,0,0.6352941176470588)" d="M201 2h1M201 312h1" />
<path stroke="rgba(0,134,0,0.7333333333333333)" d="M202 2h1M121 4h1M22 42h41M212 42h31M2 112h1M2 202h1M245 221h1M22 222h1M244 222h1M22 312h91M203 312h90" />
<path stroke="rgba(0,134,0,0.796078431372549)" d="M292 2h1M282 95h1M188 98h1M188 188h1M292 272h1" />
<path stroke="rgba(0,135,0,0.7058823529411765)" d="M293 2h1M293 92h1M268 108h1M272 194h1M293 272h1M293 312h1" />
<path stroke="rgba(0,135,0,0.615686274509804)" d="M294 2h1M304 39h1M294 92h1M304 219h1M294 272h1M294 312h1" />
<path stroke="rgba(0,134,0,0.5058823529411764)" d="M295 2h1M310 12h1M257 86h1M256 87h1M255 88h1M254 89h1M253 90h1M295 92h1M310 102h1M257 176h1M256 177h1M255 178h1M254 179h1M253 180h1M257 266h1M256 267h1M255 268h1M254 269h1M253 270h1M295 272h1M310 282h1M295 312h1" />
<path stroke="rgba(0,136,0,0.4117647058823529)" d="M296 2h1M296 92h1M296 272h1M296 312h1" />
<path stroke="rgba(0,135,0,0.19215686274509805)" d="M297 2h1M122 4h1M297 92h1M297 272h1M297 312h1" />
<path stroke="rgba(0,255,0,0.00392156862745098)" d="M298 2h1M303 4h1M312 29h1M307 37h1M306 38h1M304 40h1M301 43h1M300 44h1M299 45h1M298 46h1M297 47h1M296 48h1M295 49h1M294 50h1M293 51h1M292 52h1M291 53h1M298 92h1M303 94h1M312 209h1M307 217h1M306 218h1M304 220h1M301 223h1M300 224h1M299 225h1M298 226h1M297 227h1M296 228h1M295 229h1M294 230h1M293 231h1M292 232h1M291 233h1M298 272h1M303 274h1M186 279h1M312 299h1M298 312h1" />
<path stroke="rgba(0,135,0,0.45098039215686275)" d="M15 3h1M15 41h1M226 117h1M225 118h1M224 119h1M222 121h1M226 207h1M225 208h1M224 209h1M222 211h1M15 221h1M15 311h1" />
<path stroke="rgba(0,136,0,0.7450980392156863)" d="M16 3h1M16 41h1M2 113h1M2 114h1M2 115h1M2 116h1M2 117h1M2 118h1M2 119h1M2 120h1M2 121h1M2 122h1M2 123h1M2 124h1M2 125h1M2 126h1M2 127h1M2 128h1M2 129h1M2 130h1M2 131h1M2 132h1M2 133h1M2 134h1M2 135h1M2 136h1M2 137h1M2 138h1M2 139h1M2 140h1M2 141h1M2 142h1M2 143h1M2 144h1M2 145h1M2 146h1M2 147h1M2 148h1M2 149h1M2 150h1M2 151h1M2 152h1M2 153h1M2 154h1M2 155h1M2 156h1M2 157h1M2 158h1M2 159h1M2 160h1M2 161h1M2 162h1M2 163h1M2 164h1M2 165h1M2 166h1M2 167h1M2 168h1M2 169h1M2 170h1M2 171h1M2 172h1M2 173h1M2 174h1M2 175h1M2 176h1M2 177h1M2 178h1M2 179h1M2 180h1M2 181h1M2 182h1M2 183h1M2 184h1M2 185h1M2 186h1M2 187h1M2 188h1M2 189h1M2 190h1M2 191h1M2 192h1M2 193h1M2 194h1M2 195h1M2 196h1M2 197h1M2 198h1M2 199h1M2 200h1M2 201h1M16 221h1M16 311h1" />
<path stroke="rgba(0,135,0,0.984313725490196)" d="M17 3h1M122 5h1M126 8h1M308 10h1M17 41h1M156 96h1M155 97h1M153 99h1M152 100h1M308 100h1M150 102h1M149 103h1M147 105h1M146 106h1M145 107h1M143 109h1M142 110h1M141 111h1M139 113h1M138 114h1M137 115h1M136 116h1M135 117h1M134 118h1M133 119h1M156 186h1M155 187h1M153 189h1M152 190h1M151 191h1M150 192h1M149 193h1M147 195h1M146 196h1M145 197h1M144 198h1M143 199h1M142 200h1M141 201h1M139 203h1M138 204h1M137 205h1M135 207h1M134 208h1M133 209h1M17 221h1M156 276h1M155 277h1M153 279h1M152 280h1M308 280h1M150 282h1M149 283h1M147 285h1M146 286h1M145 287h1M183 288h1M143 289h1M142 290h1M141 291h1M139 293h1M138 294h1M137 295h1M183 296h1M135 297h1M134 298h1M133 299h1M126 306h1M122 309h1M17 311h1" />
<path stroke="#008700" d="M18 3h100M198 3h100M15 4h106M195 4h106M13 5h109M193 5h110M11 6h113M191 6h113M10 7h115M190 7h116M9 8h117M189 8h118M8 9h119M188 9h120M7 10h121M187 10h121M6 11h123M186 11h123M6 12h124M185 12h125M5 13h125M184 13h126M5 14h126M183 14h128M4 15h127M182 15h129M4 16h127M181 16h131M4 17h128M180 17h132M3 18h129M179 18h133M3 19h129M178 19h134M3 20h129M177 20h136M3 21h129M176 21h137M3 22h129M175 22h138M3 23h129M174 23h139M3 24h129M173 24h140M3 25h129M172 25h140M3 26h129M171 26h141M4 27h128M170 27h142M4 28h127M169 28h143M4 29h127M168 29h143M5 30h126M167 30h144M5 31h125M166 31h144M6 32h123M165 32h145M6 33h123M164 33h145M7 34h121M163 34h145M8 35h119M162 35h146M9 36h117M161 36h146M10 37h115M160 37h146M11 38h113M159 38h146M13 39h110M158 39h146M15 40h107M157 40h146M18 41h103M156 41h146M64 42h56M155 42h56M244 42h57M64 43h55M154 43h56M244 43h56M63 44h55M153 44h56M243 44h56M62 45h55M152 45h56M242 45h56M61 46h55M151 46h55M241 46h56M60 47h55M150 47h55M240 47h56M59 48h55M149 48h55M239 48h56M58 49h55M148 49h55M238 49h56M57 50h55M147 50h55M237 50h56M56 51h55M146 51h55M236 51h56M55 52h55M145 52h55M235 52h56M54 53h55M144 53h55M234 53h56M53 54h55M143 54h55M233 54h56M52 55h55M142 55h55M232 55h56M51 56h55M141 56h55M231 56h56M50 57h55M140 57h55M230 57h56M49 58h55M139 58h55M229 58h56M48 59h55M138 59h55M228 59h56M47 60h55M137 60h55M227 60h56M46 61h55M136 61h55M226 61h56M45 62h55M135 62h55M225 62h56M44 63h55M134 63h55M224 63h56M43 64h55M133 64h55M223 64h56M42 65h55M132 65h55M222 65h56M41 66h55M131 66h55M221 66h56M40 67h55M130 67h55M220 67h56M39 68h55M129 68h55M219 68h56M38 69h55M128 69h55M218 69h56M37 70h55M127 70h55M217 70h56M36 71h55M126 71h55M216 71h56M35 72h55M125 72h55M215 72h56M34 73h55M124 73h55M214 73h56M33 74h55M123 74h55M213 74h56M32 75h55M122 75h55M212 75h56M31 76h55M121 76h55M211 76h56M30 77h55M120 77h55M210 77h56M29 78h55M119 78h55M209 78h56M28 79h55M118 79h55M208 79h56M27 80h55M117 80h55M207 80h56M26 81h55M116 81h55M206 81h56M25 82h55M115 82h55M205 82h56M24 83h55M114 83h55M204 83h56M23 84h55M113 84h55M203 84h56M22 85h55M112 85h55M202 85h56M21 86h55M111 86h55M201 86h56M20 87h55M110 87h55M200 87h56M19 88h55M109 88h55M199 88h56M18 89h55M108 89h55M198 89h56M17 90h55M107 90h55M197 90h56M16 91h55M106 91h55M196 91h56M15 92h55M105 92h55M195 92h56M14 93h55M104 93h55M194 93h56M288 93h10M13 94h55M103 94h55M193 94h56M285 94h16M12 95h55M102 95h55M192 95h56M283 95h20M11 96h55M101 96h55M191 96h56M282 96h22M10 97h55M100 97h55M190 97h56M280 97h26M9 98h55M99 98h55M189 98h56M279 98h28M8 99h55M98 99h55M188 99h56M278 99h30M7 100h55M97 100h55M187 100h56M277 100h31M6 101h55M96 101h55M186 101h56M276 101h33M6 102h54M95 102h55M185 102h56M275 102h35M5 103h54M94 103h55M184 103h56M274 103h36M5 104h53M93 104h55M183 104h56M273 104h38M4 105h53M92 105h55M182 105h56M272 105h39M4 106h52M91 106h55M181 106h56M271 106h41M4 107h51M90 107h55M180 107h56M270 107h42M3 108h51M89 108h55M179 108h56M269 108h43M3 109h50M88 109h55M178 109h56M268 109h44M3 110h49M87 110h55M177 110h56M267 110h46M3 111h48M86 111h55M176 111h56M266 111h47M3 112h47M85 112h55M175 112h56M265 112h48M3 113h46M84 113h55M174 113h56M264 113h49M3 114h45M83 114h55M173 114h56M263 114h50M3 115h44M82 115h55M172 115h56M262 115h51M3 116h43M81 116h55M171 116h56M261 116h52M3 117h42M80 117h55M170 117h56M260 117h53M3 118h41M79 118h55M169 118h56M259 118h54M3 119h40M78 119h55M168 119h56M258 119h55M3 120h39M77 120h55M167 120h56M257 120h56M3 121h39M76 121h55M166 121h56M256 121h57M3 122h39M75 122h55M165 122h56M255 122h58M3 123h39M74 123h55M164 123h56M254 123h59M3 124h39M73 124h55M163 124h56M253 124h60M3 125h39M72 125h55M162 125h56M252 125h61M3 126h39M71 126h55M161 126h56M251 126h62M3 127h39M70 127h55M160 127h56M250 127h63M3 128h39M69 128h55M159 128h56M249 128h64M3 129h39M68 129h55M158 129h56M248 129h65M3 130h39M67 130h55M157 130h56M247 130h66M3 131h39M66 131h55M156 131h56M246 131h67M3 132h39M65 132h55M155 132h56M245 132h68M3 133h39M64 133h55M154 133h56M244 133h69M3 134h39M63 134h55M153 134h56M243 134h70M3 135h39M62 135h55M152 135h56M242 135h71M3 136h39M61 136h55M151 136h55M241 136h72M3 137h39M60 137h55M150 137h55M240 137h73M3 138h39M59 138h55M149 138h55M239 138h74M3 139h39M58 139h55M148 139h55M238 139h75M3 140h39M57 140h55M147 140h55M237 140h76M3 141h39M56 141h55M146 141h55M236 141h77M3 142h39M55 142h55M145 142h55M235 142h78M3 143h39M54 143h55M144 143h55M234 143h79M3 144h39M53 144h55M143 144h55M233 144h80M3 145h39M52 145h55M142 145h55M232 145h81M3 146h39M51 146h55M141 146h55M231 146h82M3 147h39M50 147h55M140 147h55M230 147h83M3 148h39M49 148h55M139 148h55M229 148h84M3 149h39M48 149h55M138 149h55M228 149h85M3 150h39M47 150h55M137 150h55M227 150h86M3 151h39M46 151h55M136 151h55M226 151h87M3 152h39M45 152h55M135 152h55M225 152h88M3 153h39M44 153h55M134 153h56M224 153h89M3 154h95M133 154h55M223 154h90M3 155h94M132 155h55M222 155h91M3 156h93M131 156h55M221 156h92M3 157h92M130 157h55M220 157h93M3 158h91M129 158h55M219 158h94M3 159h90M128 159h55M218 159h95M3 160h89M127 160h55M217 160h96M3 161h88M126 161h55M216 161h56M273 161h40M3 162h87M125 162h55M215 162h56M273 162h40M3 163h86M124 163h55M214 163h56M273 163h40M3 164h85M123 164h55M213 164h56M273 164h40M3 165h84M122 165h55M212 165h56M273 165h40M3 166h83M121 166h55M211 166h56M273 166h40M3 167h82M120 167h55M210 167h56M273 167h40M3 168h81M119 168h55M209 168h56M273 168h40M3 169h80M118 169h55M208 169h56M273 169h40M3 170h79M117 170h55M207 170h56M273 170h40M3 171h78M116 171h55M206 171h56M273 171h40M3 172h77M115 172h55M205 172h56M273 172h40M3 173h76M114 173h55M204 173h56M273 173h40M3 174h75M113 174h55M203 174h56M273 174h40M3 175h74M112 175h55M202 175h56M273 175h40M3 176h73M111 176h55M201 176h56M273 176h40M3 177h72M110 177h55M200 177h56M273 177h40M3 178h71M109 178h55M199 178h56M273 178h40M3 179h70M108 179h55M198 179h56M273 179h40M3 180h69M107 180h55M197 180h56M273 180h40M3 181h68M106 181h55M196 181h56M273 181h40M3 182h67M105 182h55M195 182h56M273 182h40M3 183h66M104 183h55M194 183h56M273 183h40M3 184h65M103 184h55M193 184h56M273 184h40M3 185h64M102 185h55M192 185h56M273 185h40M3 186h63M101 186h55M191 186h56M273 186h40M3 187h62M100 187h55M190 187h56M273 187h40M3 188h61M99 188h55M189 188h56M273 188h40M3 189h60M98 189h55M188 189h56M273 189h40M3 190h59M97 190h55M187 190h56M273 190h40M3 191h58M96 191h55M186 191h56M273 191h40M3 192h57M95 192h55M185 192h56M273 192h40M3 193h56M94 193h55M184 193h56M273 193h40M3 194h55M93 194h55M183 194h56M273 194h40M3 195h54M92 195h55M182 195h56M272 195h41M3 196h53M91 196h55M181 196h56M271 196h42M3 197h52M90 197h55M180 197h56M270 197h43M3 198h51M89 198h55M179 198h56M269 198h44M3 199h50M88 199h55M178 199h56M268 199h45M3 200h49M87 200h55M177 200h56M267 200h46M3 201h48M86 201h55M176 201h56M266 201h47M3 202h47M85 202h55M175 202h56M265 202h48M3 203h46M84 203h55M174 203h56M264 203h49M3 204h45M83 204h55M173 204h56M263 204h50M3 205h44M82 205h55M172 205h56M262 205h50M3 206h43M81 206h55M171 206h56M261 206h51M4 207h41M80 207h55M170 207h56M260 207h52M4 208h40M79 208h55M169 208h56M259 208h53M4 209h39M78 209h55M168 209h56M258 209h53M5 210h37M77 210h55M167 210h56M257 210h54M5 211h36M76 211h55M166 211h56M256 211h54M6 212h34M75 212h55M165 212h56M255 212h55M6 213h33M74 213h55M164 213h56M254 213h55M7 214h31M73 214h55M163 214h56M253 214h55M8 215h29M72 215h55M162 215h56M252 215h56M9 216h27M71 216h55M161 216h56M251 216h56M10 217h25M70 217h55M160 217h56M250 217h56M11 218h23M69 218h55M159 218h56M249 218h56M13 219h19M68 219h55M158 219h56M248 219h56M15 220h15M67 220h55M157 220h56M247 220h56M18 221h9M66 221h55M156 221h56M246 221h56M65 222h55M155 222h56M245 222h56M64 223h55M154 223h56M244 223h56M63 224h55M153 224h56M243 224h56M62 225h55M152 225h56M242 225h56M61 226h55M151 226h55M241 226h56M60 227h55M150 227h55M240 227h56M59 228h55M149 228h55M239 228h56M58 229h55M148 229h55M238 229h56M57 230h55M147 230h55M237 230h56M56 231h55M146 231h55M236 231h56M55 232h55M145 232h55M235 232h56M54 233h55M144 233h55M234 233h56M53 234h55M143 234h55M233 234h56M52 235h55M142 235h55M232 235h56M51 236h55M141 236h55M231 236h56M50 237h55M140 237h55M230 237h56M49 238h55M139 238h55M229 238h56M48 239h55M138 239h55M228 239h56M47 240h55M137 240h55M227 240h56M46 241h55M136 241h55M226 241h56M45 242h55M135 242h55M225 242h56M44 243h55M134 243h55M224 243h56M43 244h55M133 244h55M223 244h56M42 245h55M132 245h55M222 245h56M41 246h55M131 246h55M221 246h56M40 247h55M130 247h55M220 247h56M39 248h55M129 248h55M219 248h56M38 249h55M128 249h55M218 249h56M37 250h55M127 250h55M217 250h56M36 251h55M126 251h55M216 251h56M35 252h55M125 252h55M215 252h56M34 253h55M124 253h55M214 253h56M33 254h55M123 254h55M213 254h56M32 255h55M122 255h55M212 255h56M31 256h55M121 256h55M211 256h56M30 257h55M120 257h55M210 257h56M29 258h55M119 258h55M209 258h56M28 259h55M118 259h55M208 259h56M27 260h55M117 260h55M207 260h56M26 261h55M116 261h55M206 261h56M25 262h55M115 262h55M205 262h56M24 263h55M114 263h55M204 263h56M23 264h55M113 264h55M203 264h56M22 265h55M112 265h55M202 265h56M21 266h55M111 266h55M201 266h56M20 267h55M110 267h55M200 267h56M19 268h55M109 268h55M199 268h56M18 269h55M108 269h55M198 269h56M17 270h55M107 270h55M197 270h56M16 271h55M106 271h55M196 271h56M15 272h56M105 272h55M195 272h56M14 273h145M194 273h104M13 274h145M193 274h108M12 275h145M192 275h111M11 276h145M191 276h113M10 277h145M190 277h116M9 278h145M189 278h118M8 279h145M188 279h120M7 280h145M187 280h121M6 281h145M187 281h122M6 282h144M186 282h124M5 283h144M185 283h125M5 284h143M185 284h126M4 285h143M184 285h127M4 286h142M184 286h128M4 287h141M184 287h128M3 288h141M184 288h128M3 289h140M183 289h129M3 290h139M183 290h130M3 291h138M183 291h130M3 292h137M183 292h130M3 293h136M183 293h130M3 294h135M183 294h130M3 295h134M183 295h129M3 296h133M184 296h128M4 297h131M184 297h128M4 298h130M184 298h128M4 299h129M184 299h127M5 300h127M185 300h126M5 301h126M185 301h125M6 302h124M186 302h124M6 303h123M187 303h122M7 304h121M187 304h121M8 305h119M188 305h120M9 306h117M189 306h118M10 307h115M190 307h115M11 308h113M192 308h112M13 309h109M193 309h110M15 310h105M195 310h106M18 311h100M198 311h100" />
<path stroke="rgba(0,134,0,0.807843137254902)" d="M118 3h1M312 18h1M174 22h1M312 26h1M212 74h1M211 75h1M210 76h1M209 77h1M208 78h1M207 79h1M206 80h1M312 108h1M174 112h1M212 164h1M211 165h1M210 166h1M209 167h1M208 168h1M207 169h1M206 170h1M174 202h1M312 206h1M212 254h1M211 255h1M210 256h1M209 257h1M208 258h1M207 259h1M206 260h1M312 288h1M312 296h1M118 311h1" />
<path stroke="rgba(0,134,0,0.5137254901960784)" d="M119 3h1M4 31h1M267 76h1M266 77h1M265 78h1M264 79h1M263 80h1M290 92h1M267 166h1M266 167h1M265 168h1M264 169h1M263 170h1M4 211h1M267 256h1M266 257h1M265 258h1M264 259h1M263 260h1M4 301h1M119 311h1" />
<path stroke="rgba(0,133,0,0.1803921568627451)" d="M120 3h1M57 48h1M56 49h1M55 50h1M57 138h1M56 139h1M55 140h1M57 228h1M56 229h1M55 230h1M120 311h1" />
<path stroke="rgba(0,128,0,0.0392156862745098)" d="M194 3h1M194 311h1" />
<path stroke="rgba(0,134,0,0.6627450980392157)" d="M196 3h1M196 311h1" />
<path stroke="rgba(0,134,0,0.9411764705882353)" d="M197 3h1M312 19h1M32 74h1M31 75h1M30 76h1M29 77h1M28 78h1M27 79h1M26 80h1M25 81h1M24 82h1M23 83h1M22 84h1M21 85h1M20 86h1M19 87h1M18 88h1M312 109h1M32 254h1M31 255h1M30 256h1M29 257h1M28 258h1M27 259h1M26 260h1M25 261h1M24 262h1M23 263h1M22 264h1M21 265h1M20 266h1M19 267h1M18 268h1M312 289h1M197 311h1" />
<path stroke="rgba(0,134,0,0.8901960784313725)" d="M298 3h1M105 91h1M298 93h1M102 94h1M100 96h1M99 97h1M76 120h1M105 181h1M104 182h1M103 183h1M102 184h1M101 185h1M100 186h1M99 187h1M80 206h1M76 210h1M105 271h1M298 273h1M298 311h1" />
<path stroke="rgba(0,134,0,0.596078431372549)" d="M299 3h1M299 93h1M299 273h1M299 311h1" />
<path stroke="rgba(0,134,0,0.2901960784313726)" d="M300 3h1M114 49h1M113 50h1M112 51h1M111 52h1M110 53h1M71 92h1M300 93h1M114 139h1M113 140h1M112 141h1M111 142h1M110 143h1M114 229h1M113 230h1M112 231h1M111 232h1M110 233h1M300 273h1M300 311h1" />
<path stroke="rgba(0,128,0,0.00784313725490196)" d="M301 3h1M307 7h1M132 28h1M5 34h1M305 39h1M303 41h1M302 42h1M287 92h1M301 93h1M307 97h1M5 214h1M305 219h1M303 221h1M302 222h1M301 273h1M307 277h1M5 304h1M192 310h1M301 311h1" />
<path stroke="rgba(0,137,0,0.10196078431372549)" d="M12 4h1M164 31h1M163 32h1M161 34h1M160 35h1M158 37h1M157 38h1M155 40h1M164 121h1M163 122h1M162 123h1M161 124h1M160 125h1M158 127h1M157 128h1M156 129h1M155 130h1M154 131h1M153 132h1M164 211h1M163 212h1M161 214h1M160 215h1M158 217h1M157 218h1M155 220h1" />
<path stroke="rgba(0,133,0,0.6)" d="M13 4h1M121 310h1" />
<path stroke="rgba(0,134,0,0.9803921568627451)" d="M14 4h1M3 17h1M125 37h1M124 38h1M122 40h1M119 43h1M118 44h1M117 45h1M3 107h1M131 121h1M130 122h1M129 123h1M128 124h1M127 125h1M125 127h1M124 128h1M123 129h1M122 130h1M121 131h1M120 132h1M119 133h1M118 134h1M117 135h1M99 153h1M131 211h1M130 212h1M128 214h1M127 215h1M125 217h1M124 218h1M122 220h1M119 223h1M118 224h1M117 225h1M3 287h1M131 301h1M130 302h1M128 304h1M127 305h1" />
<path stroke="rgba(0,128,0,0.03137254901960784)" d="M192 4h1M255 120h1M259 206h1M255 210h1" />
<path stroke="rgba(0,135,0,0.4666666666666667)" d="M193 4h1M13 40h1M280 96h1M244 99h1M243 100h1M244 189h1M243 190h1M242 191h1M13 220h1M25 222h1M13 310h1" />
<path stroke="rgba(0,135,0,0.9254901960784314)" d="M194 4h1M5 32h1M5 212h1M5 302h1" />
<path stroke="rgba(0,135,0,0.8431372549019608)" d="M301 4h1M180 16h1M179 17h1M177 19h1M176 20h1M175 21h1M173 23h1M172 24h1M171 25h1M301 94h1M180 106h1M179 107h1M177 109h1M176 110h1M175 111h1M173 113h1M172 114h1M171 115h1M180 196h1M179 197h1M178 198h1M177 199h1M176 200h1M175 201h1M173 203h1M172 204h1M171 205h1M35 217h1M301 274h1" />
<path stroke="rgba(0,135,0,0.3333333333333333)" d="M302 4h1M302 94h1M140 113h1M139 114h1M138 115h1M137 116h1M140 203h1M139 204h1M138 205h1M302 274h1M140 293h1M139 294h1M138 295h1M193 310h1" />
<path stroke="rgba(0,170,0,0.011764705882352941)" d="M10 5h1M189 6h1M312 15h1M10 39h1M282 94h1M312 105h1M10 219h1M312 285h1M10 309h1" />
<path stroke="rgba(0,135,0,0.4823529411764706)" d="M11 5h1M11 39h1M11 219h1M214 219h1M212 221h1M11 309h1" />
<path stroke="rgba(0,135,0,0.9450980392156862)" d="M12 5h1M12 39h1M17 89h1M16 90h1M15 91h1M41 211h1M40 212h1M38 214h1M37 215h1M12 219h1M17 269h1M16 270h1M15 271h1M12 309h1" />
<path stroke="rgba(0,136,0,0.6039215686274509)" d="M123 5h1M279 97h1M123 309h1" />
<path stroke="rgba(0,136,0,0.30196078431372547)" d="M191 5h1M191 309h1" />
<path stroke="rgba(0,135,0,0.8549019607843137)" d="M192 5h1M132 23h1M152 44h1M151 45h1M150 46h1M149 47h1M148 48h1M147 49h1M146 50h1M145 51h1M144 52h1M143 53h1M152 134h1M151 135h1M150 136h1M149 137h1M148 138h1M147 139h1M146 140h1M145 141h1M144 142h1M143 143h1M125 161h1M152 224h1M151 225h1M150 226h1M149 227h1M148 228h1M147 229h1M146 230h1M145 231h1M144 232h1M143 233h1M192 309h1" />
<path stroke="rgba(0,135,0,0.7529411764705882)" d="M303 5h1M132 24h1M303 95h1M303 275h1M185 282h1M303 309h1" />
<path stroke="rgba(0,136,0,0.17647058823529413)" d="M304 5h1M62 43h1M61 44h1M60 45h1M59 46h1M58 47h1M304 95h1M67 128h1M66 129h1M65 130h1M64 131h1M63 132h1M62 133h1M61 134h1M60 135h1M59 136h1M58 137h1M67 218h1M65 220h1M62 223h1M61 224h1M60 225h1M59 226h1M58 227h1M304 275h1M304 309h1" />
<path stroke="rgba(0,139,0,0.08627450980392157)" d="M9 6h1M129 10h1M4 12h1M154 41h1M153 42h1M4 102h1M154 221h1M153 222h1M4 282h1" />
<path stroke="rgba(0,135,0,0.7686274509803922)" d="M10 6h1M243 42h1M243 43h1M242 44h1M241 45h1M247 129h1M246 130h1M245 131h1M244 132h1M243 133h1M242 134h1M241 135h1M215 161h1M246 220h1M28 221h1M243 223h1M242 224h1M241 225h1M188 278h1M188 306h1" />
<path stroke="rgba(0,134,0,0.8666666666666667)" d="M124 6h1M9 7h1M194 310h1" />
<path stroke="rgba(0,133,0,0.17254901960784313)" d="M125 6h1M8 7h1M74 121h1M73 122h1M72 123h1M71 124h1M70 125h1M68 127h1M74 211h1M73 212h1M71 214h1M70 215h1M68 217h1M182 289h1" />
<path stroke="rgba(0,135,0,0.5686274509803921)" d="M190 6h1M306 7h1M307 36h1M297 46h1M296 47h1M295 48h1M294 49h1M293 50h1M306 97h1M307 216h1M24 222h1M297 226h1M296 227h1M295 228h1M294 229h1M293 230h1M306 277h1" />
<path stroke="rgba(0,134,0,0.9725490196078431)" d="M304 6h1M116 46h1M115 47h1M114 48h1M113 49h1M112 50h1M111 51h1M110 52h1M109 53h1M108 54h1M107 55h1M106 56h1M105 57h1M70 92h1M69 93h1M304 96h1M116 136h1M115 137h1M114 138h1M113 139h1M112 140h1M111 141h1M110 142h1M109 143h1M108 144h1M107 145h1M106 146h1M105 147h1M116 226h1M115 227h1M114 228h1M113 229h1M112 230h1M111 231h1M110 232h1M109 233h1M108 234h1M107 235h1M106 236h1M105 237h1M304 276h1" />
<path stroke="rgba(0,136,0,0.3686274509803922)" d="M305 6h1M305 96h1M133 120h1M133 210h1M305 276h1M133 300h1" />
<path stroke="rgba(0,135,0,0.9529411764705882)" d="M125 7h1M310 13h1M71 91h1M68 94h1M66 96h1M65 97h1M63 99h1M62 100h1M60 102h1M59 103h1M310 103h1M57 105h1M71 181h1M70 182h1M69 183h1M68 184h1M67 185h1M66 186h1M65 187h1M63 189h1M62 190h1M61 191h1M60 192h1M59 193h1M57 195h1M36 216h1M71 271h1M310 283h1" />
<path stroke="rgba(0,134,0,0.3137254901960784)" d="M126 7h1M92 161h1" />
<path stroke="rgba(0,136,0,0.058823529411764705)" d="M188 7h1M4 32h1M4 212h1M4 302h1" />
<path stroke="rgba(0,135,0,0.7176470588235294)" d="M189 7h1M260 206h1" />
<path stroke="rgba(0,134,0,0.14901960784313725)" d="M7 8h1M128 35h1M7 36h1M7 98h1M69 126h1M7 216h1M69 216h1M66 219h1M7 278h1M7 306h1" />
<path stroke="rgba(0,134,0,0.9294117647058824)" d="M8 8h1M132 22h1M310 31h1M8 36h1M8 98h1M310 211h1M8 216h1M8 278h1M310 301h1M8 306h1" />
<path stroke="rgba(0,134,0,0.2980392156862745)" d="M127 8h1M127 36h1" />
<path stroke="rgba(0,135,0,0.792156862745098)" d="M188 8h1M191 95h1M191 275h1" />
<path stroke="rgba(0,140,0,0.0784313725490196)" d="M6 9h1M186 9h1M185 10h1M183 12h1M165 30h1M162 33h1M195 90h1M194 91h1M191 94h1M189 96h1M188 97h1M6 99h1M186 99h1M185 100h1M183 102h1M165 120h1M195 180h1M194 181h1M193 182h1M192 183h1M191 184h1M190 185h1M189 186h1M188 187h1M186 189h1M185 190h1M184 191h1M183 192h1M165 210h1M162 213h1M27 222h1M195 270h1M194 271h1M191 274h1M189 276h1M188 277h1M6 279h1" />
<path stroke="rgba(0,136,0,0.8705882352941177)" d="M7 9h1M104 92h1M103 93h1M7 99h1M7 279h1" />
<path stroke="rgba(0,134,0,0.9647058823529412)" d="M127 9h1M308 34h1M84 78h1M83 79h1M82 80h1M81 81h1M80 82h1M79 83h1M78 84h1M77 85h1M76 86h1M75 87h1M58 104h1M54 108h1M50 112h1M42 120h1M84 168h1M83 169h1M82 170h1M81 171h1M80 172h1M79 173h1M78 174h1M77 175h1M76 176h1M75 177h1M58 194h1M50 202h1M308 214h1M84 258h1M83 259h1M82 260h1M81 261h1M80 262h1M79 263h1M78 264h1M77 265h1M76 266h1M75 267h1M308 304h1" />
<path stroke="rgba(0,135,0,0.2)" d="M128 9h1M309 34h1M54 51h1M53 52h1M52 53h1M51 54h1M13 92h1M12 93h1M10 95h1M54 141h1M53 142h1M52 143h1M51 144h1M309 214h1M54 231h1M53 232h1M52 233h1M51 234h1M13 272h1M12 273h1M10 275h1M309 304h1" />
<path stroke="rgba(0,135,0,0.8196078431372549)" d="M187 9h1M186 10h1M184 12h1M163 33h1M187 99h1M186 100h1M184 102h1M272 161h1M187 189h1M186 190h1M185 191h1M184 192h1M163 213h1" />
<path stroke="rgba(0,136,0,0.4196078431372549)" d="M308 9h1M3 29h1M308 99h1M3 209h1M308 279h1M3 299h1M186 304h1" />
<path stroke="rgba(0,128,0,0.01568627450980392)" d="M5 10h1M132 16h1M284 93h1M5 100h1M5 280h1" />
<path stroke="rgba(0,136,0,0.7372549019607844)" d="M6 10h1M6 100h1M34 218h1M6 280h1" />
<path stroke="rgba(0,135,0,0.8784313725490196)" d="M128 10h1M137 59h1M136 60h1M135 61h1M134 62h1M133 63h1M132 64h1M131 65h1M130 66h1M129 67h1M128 68h1M95 101h1M92 104h1M137 149h1M136 150h1M135 151h1M134 152h1M132 154h1M131 155h1M130 156h1M129 157h1M128 158h1M92 194h1M137 239h1M136 240h1M135 241h1M134 242h1M133 243h1M132 244h1M131 245h1M130 246h1M129 247h1M128 248h1" />
<path stroke="rgba(0,133,0,0.2627450980392157)" d="M309 10h1M131 14h1M131 30h1M309 100h1M47 206h1M309 280h1" />
<path stroke="rgba(0,134,0,0.4627450980392157)" d="M5 11h1M5 33h1M5 101h1M241 102h1M240 103h1M238 105h1M237 106h1M241 192h1M240 193h1M238 195h1M237 196h1M5 213h1M5 281h1M5 303h1" />
<path stroke="rgba(0,136,0,0.6705882352941176)" d="M129 11h1M129 33h1M23 222h1M187 279h1" />
<path stroke="rgba(0,135,0,0.06666666666666667)" d="M184 11h1M181 14h1M2 17h1M225 60h1M224 61h1M223 62h1M222 63h1M221 64h1M184 101h1M181 104h1M2 107h1M225 150h1M224 151h1M223 152h1M221 154h1M181 194h1M225 240h1M224 241h1M223 242h1M222 243h1M221 244h1M2 287h1" />
<path stroke="rgba(0,134,0,0.9058823529411765)" d="M309 11h1M309 33h1M97 99h1M96 100h1M309 101h1M94 102h1M93 103h1M42 153h1M97 189h1M96 190h1M95 191h1M94 192h1M93 193h1M309 213h1M309 281h1M309 303h1" />
<path stroke="rgba(0,128,0,0.047058823529411764)" d="M310 11h1M2 27h1M310 33h1M6 35h1M9 38h1M12 40h1M310 101h1M265 110h1M264 111h1M262 113h1M261 114h1M260 115h1M259 116h1M258 117h1M257 118h1M256 119h1M254 121h1M253 122h1M252 123h1M251 124h1M222 153h1M265 200h1M264 201h1M262 203h1M261 204h1M260 205h1M2 207h1M258 207h1M257 208h1M256 209h1M254 211h1M253 212h1M310 213h1M251 214h1M6 215h1M9 218h1M12 220h1M310 281h1M2 297h1M310 303h1M6 305h1M9 308h1M12 310h1" />
<path stroke="rgba(0,134,0,0.9490196078431372)" d="M5 12h1M14 40h1M5 102h1M56 106h1M55 107h1M53 109h1M52 110h1M51 111h1M49 113h1M48 114h1M47 115h1M46 116h1M45 117h1M44 118h1M43 119h1M56 196h1M55 197h1M54 198h1M53 199h1M52 200h1M51 201h1M49 203h1M48 204h1M47 205h1M45 207h1M44 208h1M43 209h1M14 220h1M5 282h1M14 310h1" />
<path stroke="rgba(0,134,0,0.23137254901960785)" d="M130 12h1M132 27h1M54 109h1M53 110h1M52 111h1M50 113h1M49 114h1M48 115h1M47 116h1M54 199h1M53 200h1M52 201h1M50 203h1M49 204h1M48 205h1M126 307h1" />
<path stroke="rgba(0,135,0,0.5490196078431373)" d="M4 13h1M4 103h1M4 283h1" />
<path stroke="rgba(0,138,0,0.09411764705882353)" d="M182 13h1M3 14h1M180 15h1M179 16h1M178 17h1M176 19h1M3 30h1M182 103h1M3 104h1M180 105h1M179 106h1M178 107h1M176 109h1M182 193h1M180 195h1M179 196h1M178 197h1M177 198h1M176 199h1M3 210h1M3 284h1M3 300h1" />
<path stroke="rgba(0,133,0,0.8392156862745098)" d="M183 13h1M181 15h1M183 103h1M181 105h1M183 193h1M181 195h1" />
<path stroke="rgba(0,133,0,0.09019607843137255)" d="M311 13h1M311 103h1M311 283h1" />
<path stroke="rgba(0,135,0,0.9607843137254902)" d="M4 14h1M4 30h1M4 104h1M46 206h1M4 210h1M42 210h1M39 213h1M32 219h1M4 284h1M4 300h1" />
<path stroke="rgba(0,136,0,0.5450980392156862)" d="M311 14h1M2 24h1M311 30h1M311 104h1M2 204h1M311 210h1M311 284h1M2 294h1M311 300h1" />
<path stroke="rgba(0,134,0,0.4392156862745098)" d="M3 15h1M210 43h1M209 44h1M208 45h1M207 46h1M206 47h1M205 48h1M3 105h1M211 132h1M210 133h1M209 134h1M208 135h1M207 136h1M206 137h1M205 138h1M210 223h1M209 224h1M208 225h1M207 226h1M206 227h1M205 228h1M3 285h1M183 298h1" />
<path stroke="rgba(0,135,0,0.6431372549019608)" d="M131 15h1" />
<path stroke="rgba(0,135,0,0.9176470588235294)" d="M311 15h1M63 43h1M62 44h1M61 45h1M60 46h1M59 47h1M58 48h1M57 49h1M56 50h1M311 105h1M67 129h1M66 130h1M65 131h1M64 132h1M63 133h1M62 134h1M61 135h1M60 136h1M59 137h1M58 138h1M57 139h1M56 140h1M66 220h1M63 223h1M62 224h1M61 225h1M60 226h1M59 227h1M58 228h1M57 229h1M56 230h1M104 272h1M311 285h1" />
<path stroke="rgba(0,134,0,0.7411764705882353)" d="M3 16h1M3 106h1M3 286h1M183 297h1" />
<path stroke="rgba(0,134,0,0.9333333333333333)" d="M131 16h1M127 35h1M55 51h1M54 52h1M53 53h1M52 54h1M51 55h1M50 56h1M49 57h1M48 58h1M14 92h1M13 93h1M11 95h1M55 141h1M54 142h1M53 143h1M52 144h1M51 145h1M50 146h1M49 147h1M48 148h1M55 231h1M54 232h1M53 233h1M52 234h1M51 235h1M50 236h1M49 237h1M48 238h1M14 272h1M71 272h1M13 273h1M11 275h1" />
<path stroke="rgba(0,136,0,0.22745098039215686)" d="M312 16h1M312 106h1M46 117h1M45 118h1M44 119h1M46 207h1M45 208h1M44 209h1M42 211h1M41 212h1M312 286h1M302 310h1" />
<path stroke="rgba(0,135,0,0.25098039215686274)" d="M132 17h1M37 216h1" />
<path stroke="rgba(0,134,0,0.5294117647058824)" d="M312 17h1M287 56h1M286 57h1M285 58h1M284 59h1M283 60h1M312 107h1M287 236h1M286 237h1M285 238h1M284 239h1M283 240h1M312 287h1" />
<path stroke="rgba(0,135,0,0.3176470588235294)" d="M2 18h1M2 26h1M2 108h1M2 206h1M2 288h1M2 296h1" />
<path stroke="rgba(0,135,0,0.5254901960784314)" d="M132 18h1M132 26h1M282 61h1M281 62h1M280 63h1M279 64h1M278 65h1M242 101h1M282 241h1M281 242h1M280 243h1M279 244h1M278 245h1" />
<path stroke="rgba(0,142,0,0.07058823529411765)" d="M177 18h1M220 65h1M219 66h1M218 67h1M217 68h1M216 69h1M215 70h1M214 71h1M213 72h1M212 73h1M211 74h1M210 75h1M209 76h1M208 77h1M177 108h1M220 155h1M219 156h1M218 157h1M217 158h1M216 159h1M215 160h1M213 162h1M212 163h1M211 164h1M210 165h1M209 166h1M208 167h1M35 218h1M220 245h1M219 246h1M218 247h1M217 248h1M216 249h1M215 250h1M214 251h1M213 252h1M212 253h1M211 254h1M210 255h1M209 256h1M208 257h1" />
<path stroke="rgba(0,136,0,0.803921568627451)" d="M178 18h1M9 37h1M220 66h1M219 67h1M218 68h1M217 69h1M216 70h1M215 71h1M214 72h1M213 73h1M178 108h1M220 156h1M219 157h1M218 158h1M217 159h1M216 160h1M214 162h1M213 163h1M9 217h1M220 246h1M219 247h1M218 248h1M217 249h1M216 250h1M215 251h1M214 252h1M213 253h1M9 307h1M124 308h1" />
<path stroke="rgba(0,134,0,0.4549019607843137)" d="M2 19h1M2 109h1M230 113h1M229 114h1M228 115h1M227 116h1M230 203h1M229 204h1M228 205h1M2 289h1" />
<path stroke="rgba(0,136,0,0.5529411764705883)" d="M2 20h1M2 110h1M2 290h1" />
<path stroke="rgba(0,135,0,0.7607843137254902)" d="M132 20h1M262 114h1M261 115h1M260 116h1M259 117h1M258 118h1M257 119h1M262 204h1M261 205h1M259 207h1M258 208h1M257 209h1M183 287h1" />
<path stroke="rgba(0,133,0,0.09803921568627451)" d="M175 20h1M174 21h1M172 23h1M171 24h1M170 25h1M168 27h1M167 28h1M166 29h1M175 110h1M174 111h1M172 113h1M171 114h1M170 115h1M169 116h1M168 117h1M167 118h1M166 119h1M132 153h1M175 200h1M174 201h1M172 203h1M171 204h1M170 205h1M168 207h1M167 208h1M166 209h1" />
<path stroke="rgba(0,139,0,0.043137254901960784)" d="M313 20h1M266 109h1M313 110h1M267 198h1M266 199h1M313 290h1" />
<path stroke="rgba(0,135,0,0.6509803921568628)" d="M2 21h1M2 111h1M2 291h1" />
<path stroke="rgba(0,135,0,0.8588235294117647)" d="M132 21h1M142 54h1M142 144h1M142 234h1" />
<path stroke="rgba(0,135,0,0.1411764705882353)" d="M313 21h1M105 90h1M104 91h1M101 94h1M99 96h1M98 97h1M313 111h1M75 120h1M105 180h1M104 181h1M103 182h1M102 183h1M101 184h1M100 185h1M99 186h1M98 187h1M79 206h1M75 210h1M105 270h1M104 271h1M313 291h1" />
<path stroke="rgba(0,134,0,0.7215686274509804)" d="M2 22h1M3 28h1M130 31h1M256 120h1M3 208h1M256 210h1M2 292h1M3 298h1M202 312h1" />
<path stroke="rgba(0,134,0,0.07450980392156863)" d="M173 22h1M169 26h1M207 78h1M206 79h1M205 80h1M204 81h1M203 82h1M202 83h1M201 84h1M200 85h1M199 86h1M198 87h1M197 88h1M196 89h1M173 112h1M207 168h1M206 169h1M205 170h1M204 171h1M203 172h1M202 173h1M201 174h1M200 175h1M199 176h1M198 177h1M197 178h1M196 179h1M173 202h1M169 206h1M32 220h1M207 258h1M206 259h1M205 260h1M204 261h1M203 262h1M202 263h1M201 264h1M200 265h1M199 266h1M198 267h1M197 268h1M196 269h1" />
<path stroke="rgba(0,137,0,0.21176470588235294)" d="M313 22h1M35 70h1M34 71h1M33 72h1M32 73h1M31 74h1M30 75h1M29 76h1M28 77h1M35 250h1M34 251h1M33 252h1M32 253h1M31 254h1M30 255h1M29 256h1M28 257h1M313 292h1" />
<path stroke="rgba(0,134,0,0.6470588235294118)" d="M2 23h1M2 203h1M2 293h1" />
<path stroke="rgba(0,135,0,0.13333333333333333)" d="M313 23h1M122 73h1M121 74h1M120 75h1M119 76h1M118 77h1M117 78h1M116 79h1M87 108h1M122 163h1M121 164h1M120 165h1M119 166h1M118 167h1M117 168h1M116 169h1M313 203h1M30 221h1M122 253h1M121 254h1M120 255h1M119 256h1M118 257h1M117 258h1M116 259h1M313 293h1M183 299h1" />
<path stroke="rgba(0,142,0,0.03529411764705882)" d="M313 24h1M276 99h1M275 100h1M273 102h1M272 103h1M270 105h1M269 106h1M268 107h1M249 126h1M270 195h1M269 196h1M268 197h1M313 204h1M252 213h1M249 216h1M246 219h1M244 221h1M243 222h1M313 294h1" />
<path stroke="rgba(0,134,0,0.4470588235294118)" d="M2 25h1M221 122h1M220 123h1M219 124h1M218 125h1M190 153h1M2 205h1M221 212h1M219 214h1M218 215h1M2 295h1" />
<path stroke="rgba(0,134,0,0.6549019607843137)" d="M132 25h1" />
<path stroke="rgba(0,136,0,0.9372549019607843)" d="M312 25h1M47 59h1M46 60h1M45 61h1M44 62h1M43 63h1M42 64h1M41 65h1M40 66h1M39 67h1M38 68h1M37 69h1M36 70h1M35 71h1M34 72h1M33 73h1M47 149h1M46 150h1M45 151h1M44 152h1M312 205h1M47 239h1M46 240h1M45 241h1M44 242h1M43 243h1M42 244h1M41 245h1M40 246h1M39 247h1M38 248h1M37 249h1M36 250h1M35 251h1M34 252h1M33 253h1M312 295h1M304 308h1" />
<path stroke="rgba(0,136,0,0.8117647058823529)" d="M170 26h1M205 81h1M204 82h1M203 83h1M202 84h1M201 85h1M200 86h1M199 87h1M198 88h1M197 89h1M196 90h1M205 171h1M204 172h1M203 173h1M202 174h1M201 175h1M200 176h1M199 177h1M198 178h1M197 179h1M196 180h1M170 206h1M205 261h1M204 262h1M203 263h1M202 264h1M201 265h1M200 266h1M199 267h1M198 268h1M197 269h1M196 270h1" />
<path stroke="rgba(0,135,0,0.9686274509803922)" d="M3 27h1M104 58h1M103 59h1M102 60h1M101 61h1M100 62h1M99 63h1M98 64h1M97 65h1M96 66h1M95 67h1M94 68h1M93 69h1M92 70h1M91 71h1M90 72h1M89 73h1M88 74h1M87 75h1M86 76h1M85 77h1M67 95h1M64 98h1M61 101h1M104 148h1M103 149h1M102 150h1M101 151h1M100 152h1M98 154h1M97 155h1M96 156h1M95 157h1M94 158h1M93 159h1M92 160h1M90 162h1M89 163h1M88 164h1M87 165h1M86 166h1M85 167h1M64 188h1M3 207h1M30 220h1M104 238h1M103 239h1M102 240h1M101 241h1M100 242h1M99 243h1M98 244h1M97 245h1M96 246h1M95 247h1M94 248h1M93 249h1M92 250h1M91 251h1M90 252h1M89 253h1M88 254h1M87 255h1M86 256h1M85 257h1M3 297h1" />
<path stroke="rgba(0,135,0,0.8470588235294118)" d="M169 27h1M168 28h1M167 29h1M165 31h1M164 32h1M162 34h1M161 35h1M63 42h1M170 116h1M169 117h1M168 118h1M167 119h1M165 121h1M164 122h1M163 123h1M162 124h1M161 125h1M133 153h1M169 207h1M168 208h1M167 209h1M165 211h1M164 212h1M162 214h1M161 215h1" />
<path stroke="rgba(0,135,0,0.5098039215686274)" d="M312 27h1M262 81h1M261 82h1M260 83h1M259 84h1M258 85h1M231 112h1M262 171h1M261 172h1M260 173h1M259 174h1M258 175h1M231 202h1M312 207h1M262 261h1M261 262h1M260 263h1M259 264h1M258 265h1M312 297h1" />
<path stroke="rgba(0,135,0,0.9098039215686274)" d="M131 28h1M91 105h1M90 106h1M89 107h1M87 109h1M86 110h1M85 111h1M83 113h1M82 114h1M81 115h1M91 195h1M90 196h1M89 197h1M88 198h1M87 199h1M86 200h1M85 201h1M83 203h1M82 204h1M81 205h1M125 307h1" />
<path stroke="rgba(0,135,0,0.20784313725490197)" d="M312 28h1M42 63h1M41 64h1M40 65h1M39 66h1M38 67h1M37 68h1M36 69h1M312 208h1M42 243h1M41 244h1M40 245h1M39 246h1M38 247h1M37 248h1M36 249h1M312 298h1" />
<path stroke="rgba(0,135,0,0.6235294117647059)" d="M131 29h1M291 92h1" />
<path stroke="rgba(0,135,0,0.8941176470588236)" d="M311 29h1M311 209h1M73 213h1M311 299h1" />
<path stroke="rgba(0,134,0,0.8156862745098039)" d="M166 30h1M195 91h1M192 94h1M190 96h1M189 97h1M166 120h1M42 121h1M42 122h1M42 123h1M42 124h1M42 125h1M42 126h1M42 127h1M42 128h1M42 129h1M42 130h1M42 131h1M42 132h1M42 133h1M42 134h1M42 135h1M42 136h1M42 137h1M42 138h1M42 139h1M42 140h1M42 141h1M42 142h1M42 143h1M42 144h1M42 145h1M42 146h1M42 147h1M42 148h1M42 149h1M42 150h1M42 151h1M42 152h1M195 181h1M194 182h1M193 183h1M192 184h1M191 185h1M190 186h1M189 187h1M166 210h1M195 271h1M192 274h1M190 276h1M189 277h1" />
<path stroke="rgba(0,135,0,0.9921568627450981)" d="M129 32h1M189 63h1M188 64h1M187 65h1M186 66h1M185 67h1M184 68h1M183 69h1M182 70h1M181 71h1M180 72h1M179 73h1M178 74h1M177 75h1M176 76h1M175 77h1M174 78h1M173 79h1M172 80h1M171 81h1M170 82h1M169 83h1M168 84h1M167 85h1M166 86h1M165 87h1M164 88h1M163 89h1M162 90h1M161 91h1M151 101h1M148 104h1M144 108h1M140 112h1M188 154h1M187 155h1M186 156h1M185 157h1M184 158h1M183 159h1M182 160h1M180 162h1M179 163h1M178 164h1M177 165h1M176 166h1M175 167h1M174 168h1M173 169h1M172 170h1M171 171h1M170 172h1M169 173h1M168 174h1M167 175h1M166 176h1M165 177h1M164 178h1M163 179h1M162 180h1M161 181h1M160 182h1M148 194h1M140 202h1M136 206h1M189 243h1M188 244h1M187 245h1M186 246h1M185 247h1M184 248h1M183 249h1M182 250h1M181 251h1M180 252h1M179 253h1M178 254h1M177 255h1M176 256h1M175 257h1M174 258h1M173 259h1M172 260h1M171 261h1M170 262h1M169 263h1M168 264h1M167 265h1M166 266h1M165 267h1M164 268h1M163 269h1M162 270h1M161 271h1M151 281h1M148 284h1M144 288h1M140 292h1M136 296h1M191 308h1" />
<path stroke="rgba(0,136,0,0.1843137254901961)" d="M130 32h1" />
<path stroke="rgba(0,135,0,0.4745098039215686)" d="M310 32h1M310 212h1M186 280h1M310 302h1" />
<path stroke="rgba(0,134,0,0.8313725490196079)" d="M128 34h1" />
<path stroke="rgba(0,137,0,0.050980392156862744)" d="M129 34h1M242 43h1M241 44h1M240 45h1M239 46h1M238 47h1M237 48h1M236 49h1M250 125h1M248 127h1M247 128h1M246 129h1M245 130h1M244 131h1M243 132h1M242 133h1M241 134h1M240 135h1M239 136h1M238 137h1M237 138h1M236 139h1M214 161h1M250 215h1M248 217h1M247 218h1M245 220h1M242 223h1M241 224h1M240 225h1M239 226h1M238 227h1M237 228h1M236 229h1M182 288h1M182 296h1" />
<path stroke="rgba(0,134,0,0.8235294117647058)" d="M7 35h1M160 36h1M157 39h1M160 126h1M7 215h1M160 216h1M157 219h1M7 305h1" />
<path stroke="rgba(0,134,0,0.9882352941176471)" d="M126 36h1M123 39h1M121 41h1M120 42h1M158 94h1M281 96h1M132 120h1M126 126h1M159 183h1M158 184h1M157 185h1M132 210h1M129 213h1M126 216h1M123 219h1M27 221h1M121 221h1M120 222h1M251 272h1M158 274h1M186 281h1M132 300h1M129 303h1M186 303h1M305 307h1M120 310h1" />
<path stroke="rgba(0,134,0,0.08235294117647059)" d="M159 36h1M156 39h1M159 126h1M159 216h1M156 219h1" />
<path stroke="rgba(0,132,0,0.11372549019607843)" d="M8 37h1M8 217h1M8 307h1M122 310h1" />
<path stroke="rgba(0,135,0,0.3254901960784314)" d="M126 37h1M125 38h1M129 124h1M128 125h1M126 127h1M125 128h1M100 153h1M272 162h1M272 163h1M272 164h1M272 165h1M272 166h1M272 167h1M272 168h1M272 169h1M272 170h1M272 171h1M272 172h1M272 173h1M272 174h1M272 175h1M272 176h1M272 177h1M272 178h1M272 179h1M272 180h1M272 181h1M272 182h1M272 183h1M272 184h1M272 185h1M272 186h1M272 187h1M272 188h1M272 189h1M272 190h1M272 191h1M272 192h1M272 193h1M129 214h1M128 215h1M126 217h1M125 218h1M129 304h1M128 305h1" />
<path stroke="rgba(0,135,0,0.8509803921568627)" d="M159 37h1M158 38h1M156 40h1M153 43h1M159 127h1M158 128h1M157 129h1M156 130h1M155 131h1M154 132h1M153 133h1M159 217h1M158 218h1M156 220h1M153 223h1" />
<path stroke="rgba(0,136,0,0.6862745098039216)" d="M10 38h1M10 218h1M10 308h1" />
<path stroke="rgba(0,136,0,0.35294117647058826)" d="M124 39h1M122 41h1M124 219h1M122 221h1" />
<path stroke="rgba(0,134,0,0.3215686274509804)" d="M123 40h1M120 43h1M119 44h1M118 45h1M285 93h1M124 129h1M123 130h1M122 131h1M121 132h1M120 133h1M119 134h1M118 135h1M123 220h1M120 223h1M119 224h1M118 225h1" />
<path stroke="rgba(0,135,0,0.8274509803921568)" d="M155 41h1M154 42h1M155 221h1M154 222h1" />
<path stroke="rgba(0,136,0,0.611764705882353)" d="M302 41h1M301 42h1M302 221h1M301 222h1" />
<path stroke="rgba(0,135,0,0.34901960784313724)" d="M121 42h1M121 222h1" />
<path stroke="rgba(0,132,0,0.10588235294117647)" d="M152 43h1M151 44h1M150 45h1M149 46h1M148 47h1M147 48h1M146 49h1M145 50h1M144 51h1M143 52h1M152 133h1M151 134h1M150 135h1M149 136h1M148 137h1M147 138h1M146 139h1M145 140h1M144 141h1M143 142h1M124 161h1M152 223h1M151 224h1M150 225h1M149 226h1M148 227h1M147 228h1M146 229h1M145 230h1M144 231h1M143 232h1" />
<path stroke="rgba(0,134,0,0.5725490196078431)" d="M300 43h1M299 44h1M298 45h1M300 223h1M299 224h1M298 225h1" />
<path stroke="rgba(0,136,0,0.29411764705882354)" d="M117 46h1M116 47h1M115 48h1M117 136h1M116 137h1M115 138h1M117 226h1M116 227h1M115 228h1" />
<path stroke="rgba(0,134,0,0.996078431372549)" d="M206 46h1M205 47h1M204 48h1M203 49h1M202 50h1M201 51h1M200 52h1M199 53h1M198 54h1M197 55h1M196 56h1M195 57h1M194 58h1M193 59h1M192 60h1M191 61h1M190 62h1M160 92h1M159 93h1M157 95h1M154 98h1M206 136h1M205 137h1M204 138h1M203 139h1M202 140h1M201 141h1M200 142h1M199 143h1M198 144h1M197 145h1M196 146h1M195 147h1M194 148h1M193 149h1M192 150h1M191 151h1M190 152h1M181 161h1M154 188h1M206 226h1M205 227h1M204 228h1M203 229h1M202 230h1M201 231h1M200 232h1M199 233h1M198 234h1M197 235h1M196 236h1M195 237h1M194 238h1M193 239h1M192 240h1M191 241h1M190 242h1M160 272h1M159 273h1M157 275h1M154 278h1" />
<path stroke="rgba(0,135,0,0.7725490196078432)" d="M240 46h1M239 47h1M238 48h1M237 49h1M236 50h1M235 51h1M234 52h1M233 53h1M240 136h1M239 137h1M238 138h1M237 139h1M236 140h1M235 141h1M234 142h1M233 143h1M240 226h1M239 227h1M238 228h1M237 229h1M236 230h1M235 231h1M234 232h1M233 233h1" />
<path stroke="rgba(0,136,0,0.43529411764705883)" d="M204 49h1M203 50h1M204 139h1M203 140h1M182 161h1M204 229h1M203 230h1M306 307h1M190 308h1" />
<path stroke="rgba(0,128,0,0.054901960784313725)" d="M235 50h1M234 51h1M233 52h1M232 53h1M231 54h1M230 55h1M229 56h1M228 57h1M227 58h1M226 59h1M235 140h1M234 141h1M233 142h1M232 143h1M231 144h1M230 145h1M229 146h1M228 147h1M227 148h1M226 149h1M235 230h1M234 231h1M233 232h1M232 233h1M231 234h1M230 235h1M229 236h1M228 237h1M227 238h1M226 239h1" />
<path stroke="rgba(0,136,0,0.403921568627451)" d="M202 51h1M201 52h1M200 53h1M161 92h1M160 93h1M202 141h1M201 142h1M200 143h1M202 231h1M201 232h1M200 233h1M161 272h1M160 273h1" />
<path stroke="rgba(0,136,0,0.28627450980392155)" d="M109 54h1M108 55h1M107 56h1M106 57h1M105 58h1M104 59h1M103 60h1M102 61h1M70 93h1M68 95h1M109 144h1M108 145h1M107 146h1M106 147h1M105 148h1M104 149h1M103 150h1M102 151h1M109 234h1M108 235h1M107 236h1M106 237h1M105 238h1M104 239h1M103 240h1M102 241h1" />
<path stroke="rgba(0,135,0,0.4)" d="M199 54h1M198 55h1M197 56h1M196 57h1M195 58h1M283 94h1M158 95h1M199 144h1M198 145h1M197 146h1M196 147h1M195 148h1M199 234h1M198 235h1M197 236h1M196 237h1M195 238h1M158 275h1" />
<path stroke="rgba(0,137,0,0.20392156862745098)" d="M50 55h1M49 56h1M48 57h1M47 58h1M46 59h1M45 60h1M44 61h1M43 62h1M50 145h1M49 146h1M48 147h1M47 148h1M46 149h1M45 150h1M44 151h1M43 152h1M50 235h1M49 236h1M48 237h1M47 238h1M46 239h1M45 240h1M44 241h1M43 242h1" />
<path stroke="rgba(0,135,0,0.12549019607843137)" d="M140 55h1M139 56h1M138 57h1M137 58h1M136 59h1M135 60h1M134 61h1M133 62h1M97 98h1M94 101h1M140 145h1M139 146h1M138 147h1M137 148h1M136 149h1M135 150h1M134 151h1M133 152h1M97 188h1M140 235h1M139 236h1M138 237h1M137 238h1M136 239h1M135 240h1M134 241h1M133 242h1" />
<path stroke="rgba(0,134,0,0.8745098039215686)" d="M141 55h1M140 56h1M139 57h1M138 58h1M101 95h1M98 98h1M141 145h1M140 146h1M139 147h1M138 148h1M98 188h1M141 235h1M140 236h1M139 237h1M138 238h1" />
<path stroke="rgba(0,134,0,0.396078431372549)" d="M194 59h1M193 60h1M192 61h1M191 62h1M190 63h1M189 64h1M188 65h1M187 66h1M155 98h1M194 149h1M193 150h1M192 151h1M191 152h1M189 154h1M188 155h1M187 156h1M155 188h1M194 239h1M193 240h1M192 241h1M191 242h1M190 243h1M189 244h1M188 245h1M187 246h1M155 278h1" />
<path stroke="rgba(0,135,0,0.2823529411764706)" d="M101 62h1M100 63h1M99 64h1M98 65h1M97 66h1M96 67h1M95 68h1M65 98h1M101 152h1M99 154h1M98 155h1M97 156h1M96 157h1M95 158h1M65 188h1M101 242h1M100 243h1M99 244h1M98 245h1M97 246h1M96 247h1M95 248h1" />
<path stroke="rgba(0,131,0,0.12941176470588237)" d="M132 63h1M131 64h1M130 65h1M129 66h1M128 67h1M127 68h1M126 69h1M125 70h1M124 71h1M123 72h1M91 104h1M131 154h1M130 155h1M129 156h1M128 157h1M127 158h1M126 159h1M125 160h1M123 162h1M91 194h1M132 243h1M131 244h1M130 245h1M129 246h1M128 247h1M127 248h1M126 249h1M125 250h1M124 251h1M123 252h1" />
<path stroke="rgba(0,134,0,0.5215686274509804)" d="M277 66h1M276 67h1M275 68h1M274 69h1M273 70h1M239 104h1M239 194h1M33 219h1M277 246h1M276 247h1M275 248h1M274 249h1M273 250h1" />
<path stroke="rgba(0,135,0,0.39215686274509803)" d="M186 67h1M185 68h1M184 69h1M183 70h1M182 71h1M152 101h1M186 157h1M185 158h1M184 159h1M183 160h1M186 247h1M185 248h1M184 249h1M183 250h1M182 251h1M152 281h1" />
<path stroke="rgba(0,136,0,0.2784313725490196)" d="M94 69h1M93 70h1M92 71h1M91 72h1M90 73h1M62 101h1M94 159h1M93 160h1M91 162h1M90 163h1M94 249h1M93 250h1M92 251h1M91 252h1M90 253h1M305 308h1" />
<path stroke="rgba(0,134,0,0.8823529411764706)" d="M127 69h1M126 70h1M125 71h1M124 72h1M123 73h1M122 74h1M121 75h1M120 76h1M119 77h1M118 78h1M117 79h1M116 80h1M88 108h1M127 159h1M126 160h1M124 162h1M123 163h1M122 164h1M121 165h1M120 166h1M119 167h1M118 168h1M117 169h1M116 170h1M127 249h1M126 250h1M125 251h1M124 252h1M123 253h1M122 254h1M121 255h1M120 256h1M119 257h1M118 258h1M117 259h1M116 260h1" />
<path stroke="rgba(0,135,0,0.5176470588235295)" d="M272 71h1M271 72h1M270 73h1M269 74h1M268 75h1M235 108h1M271 162h1M270 163h1M269 164h1M268 165h1M272 251h1M271 252h1M270 253h1M269 254h1M268 255h1" />
<path stroke="rgba(0,134,0,0.38823529411764707)" d="M181 72h1M180 73h1M179 74h1M178 75h1M177 76h1M149 104h1M181 162h1M180 163h1M179 164h1M178 165h1M177 166h1M149 194h1M181 252h1M180 253h1M179 254h1M178 255h1M177 256h1M149 284h1" />
<path stroke="rgba(0,135,0,0.27450980392156865)" d="M89 74h1M88 75h1M87 76h1M86 77h1M85 78h1M84 79h1M83 80h1M82 81h1M59 104h1M89 164h1M88 165h1M87 166h1M86 167h1M85 168h1M84 169h1M83 170h1M82 171h1M59 194h1M89 254h1M88 255h1M87 256h1M86 257h1M85 258h1M84 259h1M83 260h1M82 261h1" />
<path stroke="rgba(0,135,0,0.3843137254901961)" d="M176 77h1M175 78h1M174 79h1M173 80h1M172 81h1M171 82h1M170 83h1M145 108h1M176 167h1M175 168h1M174 169h1M173 170h1M172 171h1M171 172h1M170 173h1M176 257h1M175 258h1M174 259h1M173 260h1M172 261h1M171 262h1M170 263h1M145 288h1" />
<path stroke="rgba(0,134,0,0.21568627450980393)" d="M27 78h1M26 79h1M25 80h1M24 81h1M23 82h1M22 83h1M21 84h1M288 92h1M27 258h1M26 259h1M25 260h1M24 261h1M23 262h1M22 263h1M21 264h1" />
<path stroke="rgba(0,138,0,0.13725490196078433)" d="M115 80h1M114 81h1M113 82h1M112 83h1M111 84h1M110 85h1M109 86h1M108 87h1M107 88h1M106 89h1M83 112h1M115 170h1M114 171h1M113 172h1M112 173h1M111 174h1M110 175h1M109 176h1M108 177h1M107 178h1M106 179h1M83 202h1M115 260h1M114 261h1M113 262h1M112 263h1M111 264h1M110 265h1M109 266h1M108 267h1M107 268h1M106 269h1" />
<path stroke="rgba(0,135,0,0.8862745098039215)" d="M115 81h1M114 82h1M113 83h1M112 84h1M111 85h1M110 86h1M109 87h1M108 88h1M107 89h1M106 90h1M284 94h1M84 112h1M115 171h1M114 172h1M113 173h1M112 174h1M111 175h1M110 176h1M109 177h1M108 178h1M107 179h1M106 180h1M84 202h1M115 261h1M114 262h1M113 263h1M112 264h1M111 265h1M110 266h1M109 267h1M108 268h1M107 269h1M106 270h1" />
<path stroke="rgba(0,137,0,0.27058823529411763)" d="M81 82h1M80 83h1M79 84h1M78 85h1M77 86h1M76 87h1M55 108h1M81 172h1M80 173h1M79 174h1M78 175h1M77 176h1M76 177h1M81 262h1M80 263h1M79 264h1M78 265h1M77 266h1M76 267h1M184 283h1M182 290h1" />
<path stroke="rgba(0,134,0,0.3803921568627451)" d="M169 84h1M168 85h1M167 86h1M166 87h1M165 88h1M169 174h1M168 175h1M167 176h1M166 177h1M165 178h1M169 264h1M168 265h1M167 266h1M166 267h1M165 268h1" />
<path stroke="rgba(0,137,0,0.2196078431372549)" d="M20 85h1M19 86h1M18 87h1M17 88h1M16 89h1M15 90h1M14 91h1M20 265h1M19 266h1M18 267h1M17 268h1M16 269h1M15 270h1M14 271h1" />
<path stroke="rgba(0,134,0,0.9568627450980393)" d="M74 88h1M73 89h1M72 90h1M12 94h1M10 96h1M9 97h1M74 178h1M73 179h1M72 180h1M74 268h1M73 269h1M72 270h1M12 274h1M10 276h1M9 277h1" />
<path stroke="rgba(0,136,0,0.24313725490196078)" d="M75 88h1M74 89h1M73 90h1M72 91h1M11 94h1M75 178h1M74 179h1M73 180h1M72 181h1M71 182h1M70 183h1M75 268h1M74 269h1M73 270h1M72 271h1M11 274h1" />
<path stroke="rgba(0,135,0,0.3764705882352941)" d="M164 89h1M163 90h1M162 91h1M141 112h1M164 179h1M163 180h1M162 181h1M161 182h1M141 202h1M164 269h1M163 270h1M162 271h1M141 292h1" />
<path stroke="rgba(0,135,0,0.5019607843137255)" d="M252 91h1M249 94h1M247 96h1M246 97h1M252 181h1M251 182h1M250 183h1M249 184h1M248 185h1M247 186h1M246 187h1M227 206h1M252 271h1" />
<path stroke="rgba(0,132,0,0.12156862745098039)" d="M103 92h1M102 93h1M100 95h1" />
<path stroke="rgba(0,134,0,0.788235294117647)" d="M194 92h1M193 93h1M194 272h1M193 273h1" />
<path stroke="rgba(0,135,0,0.5411764705882353)" d="M251 92h1M250 93h1" />
<path stroke="rgba(0,135,0,0.4235294117647059)" d="M289 92h1" />
<path stroke="rgba(0,135,0,0.7137254901960784)" d="M292 92h1" />
<path stroke="rgba(0,136,0,0.6196078431372549)" d="M286 93h1" />
<path stroke="rgba(0,134,0,0.9137254901960784)" d="M287 93h1M80 116h1M79 117h1M78 118h1M77 119h1M75 121h1M74 122h1M73 123h1M72 124h1M71 125h1M69 127h1M68 128h1M43 153h1M79 207h1M78 208h1M77 209h1M75 211h1M74 212h1M72 214h1M71 215h1M69 217h1M68 218h1" />
<path stroke="rgba(0,134,0,0.23921568627450981)" d="M69 94h1M67 96h1M66 97h1M64 99h1M63 100h1M313 113h1M313 114h1M313 115h1M313 116h1M313 117h1M313 118h1M313 119h1M313 120h1M313 121h1M313 122h1M313 123h1M313 124h1M313 125h1M313 126h1M313 127h1M313 128h1M313 129h1M313 130h1M313 131h1M313 132h1M313 133h1M313 134h1M313 135h1M313 136h1M313 137h1M313 138h1M313 139h1M313 140h1M313 141h1M313 142h1M313 143h1M313 144h1M313 145h1M313 146h1M313 147h1M313 148h1M313 149h1M313 150h1M313 151h1M313 152h1M313 153h1M313 154h1M313 155h1M313 156h1M313 157h1M313 158h1M313 159h1M313 160h1M313 161h1M313 162h1M313 163h1M313 164h1M313 165h1M313 166h1M313 167h1M313 168h1M313 169h1M313 170h1M313 171h1M313 172h1M313 173h1M313 174h1M313 175h1M313 176h1M313 177h1M313 178h1M313 179h1M313 180h1M313 181h1M313 182h1M313 183h1M69 184h1M313 184h1M68 185h1M313 185h1M67 186h1M313 186h1M66 187h1M313 187h1M313 188h1M64 189h1M313 189h1M63 190h1M313 190h1M62 191h1M313 191h1M313 192h1M313 193h1M313 194h1M313 195h1M313 196h1M313 197h1M313 198h1M313 199h1M313 200h1M313 201h1" />
<path stroke="rgba(0,136,0,0.34509803921568627)" d="M159 94h1M157 96h1M156 97h1M160 183h1M159 184h1M158 185h1M157 186h1M156 187h1M159 274h1M157 276h1M156 277h1" />
<path stroke="rgba(0,136,0,0.5372549019607843)" d="M248 95h1" />
<path stroke="rgba(0,134,0,0.2235294117647059)" d="M281 95h1M313 112h1M313 202h1M39 214h1M38 215h1" />
<path stroke="rgba(0,134,0,0.24705882352941178)" d="M9 96h1M8 97h1M9 276h1M8 277h1" />
<path stroke="rgba(0,128,0,0.023529411764705882)" d="M278 97h1M277 98h1M274 101h1M34 219h1" />
<path stroke="rgba(0,137,0,0.1607843137254902)" d="M96 99h1M95 100h1M93 102h1M96 189h1M95 190h1M94 191h1M93 192h1" />
<path stroke="rgba(0,135,0,0.3411764705882353)" d="M154 99h1M153 100h1M151 102h1M150 103h1M154 189h1M153 190h1M152 191h1M151 192h1M150 193h1M26 222h1M154 279h1M153 280h1M151 282h1M150 283h1" />
<path stroke="rgba(0,135,0,0.7254901960784313)" d="M277 99h1M276 100h1M253 213h1" />
<path stroke="rgba(0,135,0,0.6980392156862745)" d="M275 101h1" />
<path stroke="rgba(0,136,0,0.23529411764705882)" d="M61 102h1M60 103h1M58 105h1M57 106h1M56 107h1M61 192h1M60 193h1M58 195h1M57 196h1M56 197h1M55 198h1M184 301h1" />
<path stroke="rgba(0,134,0,0.7294117647058823)" d="M274 102h1M273 103h1M271 105h1M270 106h1M269 107h1M250 126h1M271 195h1M270 196h1M269 197h1M250 216h1M247 219h1" />
<path stroke="rgba(0,134,0,0.16470588235294117)" d="M92 103h1M90 105h1M89 106h1M88 107h1M86 109h1M85 110h1M84 111h1M92 193h1M90 195h1M89 196h1M88 197h1M87 198h1M86 199h1M85 200h1M84 201h1M182 295h1" />
<path stroke="rgba(0,146,0,0.027450980392156862)" d="M271 104h1M267 108h1M263 112h1M271 194h1M263 202h1M187 278h1M187 306h1M188 307h1" />
<path stroke="rgba(0,135,0,0.7019607843137254)" d="M272 104h1M185 302h1" />
<path stroke="rgba(0,136,0,0.33725490196078434)" d="M148 105h1M147 106h1M146 107h1M144 109h1M143 110h1M142 111h1M148 195h1M147 196h1M146 197h1M145 198h1M144 199h1M143 200h1M142 201h1M148 285h1M147 286h1M146 287h1M144 289h1M143 290h1M142 291h1" />
<path stroke="rgba(0,133,0,0.7568627450980392)" d="M267 109h1M266 110h1M265 111h1M263 113h1M223 153h1M268 198h1M267 199h1M266 200h1M265 201h1M263 203h1M301 310h1" />
<path stroke="rgba(0,135,0,0.26666666666666666)" d="M51 112h1M51 202h1M182 294h1" />
<path stroke="rgba(0,135,0,0.7098039215686275)" d="M264 112h1M264 202h1" />
<path stroke="rgba(0,136,0,0.16862745098039217)" d="M82 113h1M81 114h1M80 115h1M79 116h1M78 117h1M77 118h1M76 119h1M82 203h1M81 204h1M80 205h1M78 207h1M77 208h1M76 209h1" />
<path stroke="rgba(0,133,0,0.2549019607843137)" d="M43 120h1M43 210h1M40 213h1" />
<path stroke="rgba(0,135,0,0.4980392156862745)" d="M223 120h1M223 210h1" />
<path stroke="rgba(0,134,0,0.8980392156862745)" d="M70 126h1M70 216h1M67 219h1M65 221h1M64 222h1" />
<path stroke="rgba(0,136,0,0.3607843137254902)" d="M127 126h1M127 216h1M127 306h1" />
<path stroke="rgba(0,135,0,0.49019607843137253)" d="M217 126h1M217 216h1" />
<path stroke="rgba(0,135,0,0.44313725490196076)" d="M216 127h1M215 128h1M214 129h1M213 130h1M212 131h1M216 217h1M215 218h1M213 220h1M182 292h1" />
<path stroke="rgba(0,135,0,0.9764705882352941)" d="M91 161h1" />
<path stroke="rgba(0,134,0,0.37254901960784315)" d="M137 206h1M182 291h1M137 296h1" />
<path stroke="rgba(0,138,0,0.1450980392156863)" d="M72 213h1M36 217h1" />
<path stroke="rgba(0,136,0,0.49411764705882355)" d="M220 213h1" />
<path stroke="rgba(0,136,0,0.47058823529411764)" d="M29 221h1" />
<path stroke="rgba(0,137,0,0.15294117647058825)" d="M64 221h1M63 222h1" />
<path stroke="rgba(0,136,0,0.47843137254901963)" d="M211 222h1" />
<path stroke="rgba(0,133,0,0.19607843137254902)" d="M185 281h1M185 303h1" />
<path stroke="rgba(0,134,0,0.1568627450980392)" d="M183 285h1" />
<path stroke="rgba(0,135,0,0.592156862745098)" d="M187 305h1" />
<path stroke="rgba(0,135,0,0.6274509803921569)" d="M189 307h1" />
</svg>